<?xml version="1.0" standalone="no"?>
<!DOCTYPE svg PUBLIC "-//W3C//DTD SVG 20010904//EN"
 "http://www.w3.org/TR/2001/REC-SVG-20010904/DTD/svg10.dtd">
<svg version="1.0" xmlns="http://www.w3.org/2000/svg"
 width="300.000000pt" height="300.000000pt" viewBox="0 0 300.000000 300.000000"
 preserveAspectRatio="xMidYMid meet">
<metadata>
Created by potrace 1.11, written by Peter Selinger 2001-2013
</metadata>
<g transform="translate(0.000000,300.000000) scale(0.100000,-0.100000)"
fill="#000000" stroke="none">
<path d="M1658 2871 c-18 -16 -55 -36 -83 -45 -58 -19 -173 -75 -181 -88 -14
-23 9 -18 52 10 52 35 138 67 159 58 7 -2 15 0 18 7 6 18 133 14 193 -6 29
-10 65 -29 80 -42 16 -14 34 -25 41 -25 7 0 10 -7 7 -17 -5 -15 -4 -16 5 -3 8
12 13 12 22 3 10 -10 9 -16 -4 -31 -9 -10 -22 -33 -28 -50 -15 -44 -51 -44
-69 -2 -19 47 -85 98 -136 106 -115 17 -224 -85 -224 -210 l0 -55 -70 -57
c-57 -46 -70 -61 -70 -85 0 -16 3 -29 6 -29 3 0 37 23 75 50 38 28 73 50 78
50 5 0 16 -11 24 -24 9 -13 37 -34 62 -46 58 -28 130 -23 185 14 38 25 90 111
90 148 0 11 7 18 20 18 12 0 20 -7 20 -16 0 -30 43 -93 82 -120 44 -31 111
-41 160 -25 87 29 152 146 131 238 l-10 43 41 0 c74 -1 192 -80 255 -172 53
-76 74 -156 75 -283 0 -92 -3 -117 -21 -155 -50 -109 -141 -172 -309 -215
-161 -42 -286 -124 -301 -196 -7 -37 -29 -49 -88 -49 -58 0 -109 21 -131 55
-29 45 -133 85 -254 97 -25 3 -25 4 -22 78 6 124 -19 214 -94 345 -15 27 -36
72 -45 100 -10 27 -18 43 -18 34 -2 -29 32 -122 62 -173 39 -68 54 -109 67
-193 12 -73 6 -162 -12 -198 -16 -31 -60 -75 -90 -91 -54 -28 -144 -6 -205 50
-29 27 -43 32 -43 18 0 -28 131 -102 180 -102 54 0 137 43 158 81 17 30 17 31
83 24 114 -10 201 -44 213 -83 8 -23 85 -62 134 -69 26 -3 51 3 84 20 43 22
49 23 62 8 39 -44 37 -109 -4 -127 -16 -6 -70 -8 -143 -5 -139 7 -150 14 -145
93 2 25 0 44 -4 41 -5 -2 -8 -12 -8 -22 0 -14 -17 -19 -117 -28 -70 -7 -142
-8 -178 -3 -113 16 -166 12 -210 -15 -55 -34 -65 -32 -65 13 0 41 -25 74 -68
87 -12 3 -29 18 -37 33 l-15 27 6 -27 c6 -26 5 -26 -58 -32 -34 -3 -193 -10
-353 -15 l-290 -9 337 3 c285 3 336 2 332 -10 -4 -10 -15 -12 -35 -8 -23 4
-35 -1 -64 -30 -55 -55 -45 -115 29 -189 15 -15 25 -32 22 -37 -4 -6 -7 -35
-7 -66 -1 -68 18 -95 68 -95 33 0 33 0 33 -47 0 -27 3 -66 7 -88 6 -36 7 -37
13 -15 3 14 6 52 6 84 -1 54 2 62 32 91 17 18 32 42 32 52 0 33 11 33 59 5 46
-27 46 -27 223 -24 199 3 190 7 176 -78 -10 -66 -9 -165 2 -195 9 -23 7 -27
-16 -35 -14 -6 -44 -10 -66 -10 -54 0 -119 -32 -141 -69 l-17 -28 88 -7 c77
-6 97 -4 152 15 l64 22 15 -23 c62 -89 134 -145 226 -176 53 -19 45 -34 -18
-34 -52 0 -111 -32 -137 -75 -12 -19 -27 -35 -33 -36 -7 -1 -21 -2 -32 -3 -11
-1 -35 -3 -52 -4 -18 -1 -33 -6 -33 -12 0 -6 31 -10 74 -10 41 0 103 -8 138
-17 52 -14 110 -17 333 -18 257 0 272 1 317 22 26 12 51 30 56 40 28 51 -32
134 -118 163 -35 12 -54 24 -51 32 14 44 31 139 31 174 0 44 -24 135 -45 168
-7 12 -18 38 -25 58 -7 23 -23 44 -41 55 -16 10 -32 26 -37 38 -5 14 -9 0 -12
-45 -5 -62 -6 -65 -32 -68 -27 -3 -28 -2 -28 42 0 26 -5 46 -11 46 -6 0 -9
-21 -7 -52 l3 -53 37 1 c36 1 37 1 31 -30 -7 -33 -21 -48 -40 -41 -6 2 -14 -1
-17 -8 -3 -9 -8 -8 -16 3 -10 13 -11 13 -6 -2 3 -10 1 -20 -4 -23 -6 -4 -10 2
-11 12 0 14 -3 12 -11 -7 l-11 -25 -7 25 c-8 24 -8 24 -9 3 -1 -27 -18 -31
-24 -5 -4 13 -5 11 -6 -5 -1 -27 -21 -31 -22 -5 0 16 -1 16 -8 -1 -9 -25 -25
-23 -33 5 -6 22 -6 22 -7 -4 -1 -37 -41 -43 -58 -8 l-12 25 5 -27 c5 -21 2
-28 -9 -28 -9 0 -18 10 -20 23 l-4 22 -2 -22 c-1 -17 -9 -24 -34 -28 -51 -10
-139 1 -149 18 -5 9 -16 13 -28 10 -16 -4 -20 0 -21 18 0 22 -1 23 -8 4 -7
-17 -10 -14 -20 20 -14 51 -14 102 1 182 18 98 16 99 -188 96 -173 -2 -195 1
-258 45 l-39 27 29 12 29 12 -32 1 c-18 0 -33 5 -33 10 0 6 15 11 33 11 21 1
25 3 12 6 -33 8 -42 23 -14 24 l24 0 -25 11 -25 11 30 7 c24 6 25 8 8 9 -13 0
-23 6 -23 11 0 6 11 8 25 4 15 -4 25 -2 25 5 0 6 -10 11 -22 11 -20 1 -18 4
12 19 19 10 49 26 67 35 27 14 42 15 90 7 75 -13 165 -15 281 -6 87 7 92 7 92
-12 0 -10 12 -31 28 -45 26 -25 33 -26 147 -29 66 -1 128 1 137 5 13 6 29 -4
63 -36 48 -45 65 -70 102 -153 12 -27 22 -43 23 -34 0 8 -11 38 -25 64 -18 37
-24 62 -22 105 2 65 -19 106 -62 121 -21 7 -31 21 -40 49 -6 21 -23 48 -38 60
-23 18 -25 23 -14 43 33 58 178 134 304 158 123 23 238 110 289 217 30 63 31
66 26 191 -4 122 -6 130 -43 206 -63 132 -182 228 -303 245 -48 7 -64 14 -97
48 -38 38 -93 62 -140 62 -11 0 -40 -9 -63 -20 -49 -22 -82 -14 -82 21 0 26
-52 79 -77 79 -12 0 -7 -7 17 -21 40 -25 50 -36 50 -63 0 -19 -1 -19 -22 1
-40 37 -139 72 -211 74 -37 1 -67 6 -67 10 0 13 53 37 69 31 8 -3 11 0 7 7
-12 18 -33 13 -68 -18z m-493 -1315 c26 -39 16 -310 -12 -353 -18 -28 -75 -40
-110 -24 -25 12 -26 14 -20 85 l7 74 -45 45 c-51 51 -58 88 -24 131 27 35 63
34 86 -1 9 -16 18 -30 19 -32 2 -1 7 0 13 3 6 4 6 18 0 41 -7 23 -6 41 1 54 9
17 14 18 41 9 16 -6 37 -20 44 -32z m1031 -104 c17 -26 27 -79 16 -86 -4 -2
-28 15 -51 39 -31 33 -41 49 -36 64 5 17 10 18 33 10 15 -5 32 -17 38 -27z
m138 -363 c37 -44 35 -53 -28 -93 l-29 -18 6 23 c4 13 7 45 7 72 0 26 4 47 9
47 5 0 21 -14 35 -31z m62 -125 c19 -46 18 -189 -2 -251 l-16 -50 -72 -7 c-39
-3 -80 -7 -91 -9 -26 -3 -32 29 -10 53 21 24 16 50 -5 29 -30 -29 -78 -59
-129 -78 -65 -26 -121 -16 -198 34 -68 45 -137 137 -129 171 5 18 12 24 24 20
62 -19 307 0 402 31 64 21 165 70 180 88 16 19 29 11 46 -31z m-732 -111 c-4
-16 -9 -30 -11 -33 -8 -9 -130 -11 -173 -2 l-45 9 37 17 c21 9 52 16 70 17 18
1 44 5 58 9 14 4 35 8 48 9 20 1 22 -2 16 -26z m511 -214 c6 -19 12 -21 54
-15 147 21 175 20 234 -9 57 -27 77 -50 91 -107 5 -23 1 -28 -37 -47 -23 -11
-55 -21 -71 -23 -27 -3 -30 0 -42 45 -13 51 -31 80 -44 72 -5 -3 2 -30 15 -59
13 -30 21 -57 18 -60 -4 -3 -26 -6 -50 -6 -40 0 -45 3 -58 33 -8 19 -20 39
-28 45 -26 22 -26 0 -1 -40 l26 -40 -184 5 c-186 5 -288 23 -288 50 0 14 26
46 54 67 10 8 49 17 85 20 59 4 66 7 69 28 2 13 10 22 20 22 20 0 89 23 98 33
14 14 33 7 39 -14z"/>
<path d="M1309 2643 l-24 -28 28 24 c25 23 32 31 24 31 -2 0 -14 -12 -28 -27z"/>
<path d="M1263 2598 c-26 -35 -61 -108 -73 -153 -6 -27 -30 -87 -52 -131 -22
-45 -38 -88 -36 -95 3 -8 13 9 23 36 10 28 28 68 40 90 13 22 28 63 34 90 7
28 28 78 46 113 33 58 39 78 18 50z"/>
<path d="M465 2480 c4 -6 68 -10 168 -10 l162 0 1 -99 c1 -83 -2 -100 -15
-103 -9 -3 -97 -5 -196 -7 -99 -1 -182 -4 -184 -7 -3 -2 87 -3 200 -2 l204 3
0 115 0 115 -173 3 c-117 2 -171 -1 -167 -8z"/>
<path d="M973 2473 l87 -4 0 -98 c0 -115 5 -111 -122 -111 l-77 0 -4 103 -3
102 0 -110 1 -110 105 4 c58 2 108 5 113 8 4 2 7 53 7 114 l0 109 -97 -2 -98
-2 88 -3z"/>
<path d="M1191 2281 c-6 -10 -22 -58 -36 -107 -66 -223 3 -456 149 -504 45
-15 98 7 127 52 31 50 22 192 -20 306 -35 96 -86 191 -130 242 l-30 35 -1 -65
c0 -77 -10 -99 -31 -74 -9 10 -13 39 -13 75 0 33 -1 59 -2 59 -2 0 -8 -8 -13
-19z m109 -187 c0 -8 -4 -12 -10 -9 -5 3 -10 13 -10 21 0 8 5 12 10 9 6 -3 10
-13 10 -21z m-100 -124 c0 -11 -4 -20 -10 -20 -5 0 -10 9 -10 20 0 11 5 20 10
20 6 0 10 -9 10 -20z"/>
<path d="M2191 2272 c-49 -24 -58 -44 -38 -76 23 -34 88 -52 137 -37 78 23 91
84 26 115 -44 21 -83 20 -125 -2z"/>
<path d="M465 2201 l70 -6 3 -107 3 -108 -40 0 c-22 0 -43 -4 -46 -10 -8 -13
84 -9 94 5 5 5 6 61 3 123 l-5 112 -76 -2 -76 -2 70 -5z"/>
<path d="M597 2203 c-4 -3 -7 -55 -7 -115 l0 -108 230 0 230 0 -2 98 -2 97 -3
-87 c-4 -83 -5 -88 -26 -88 -12 0 -110 -1 -217 -3 l-195 -2 -3 98 -3 97 58 1
c32 1 112 5 178 9 l120 6 -176 2 c-97 1 -179 -1 -182 -5z"/>
<path d="M968 2203 c6 -2 18 -2 25 0 6 3 1 5 -13 5 -14 0 -19 -2 -12 -5z"/>
<path d="M1082 2158 c-17 -68 -25 -168 -12 -168 5 0 10 22 10 50 0 27 5 72 11
100 13 63 6 77 -9 18z"/>
<path d="M408 1973 c7 -3 16 -2 19 1 4 3 -2 6 -13 5 -11 0 -14 -3 -6 -6z"/>
<path d="M1071 1958 c-1 -16 -12 -18 -88 -18 -47 0 -84 -2 -82 -4 2 -2 40 -7
84 -10 44 -3 81 -5 83 -6 1 0 2 -45 2 -100 l0 -100 -94 0 -94 0 -6 63 c-4 34
-8 82 -10 107 -1 25 -3 -2 -3 -60 -1 -58 4 -111 9 -117 8 -10 33 -11 94 -6 81
6 84 5 84 -16 0 -20 -5 -21 -77 -22 -43 -1 -193 -5 -333 -9 l-255 -7 335 1
335 1 3 22 c2 12 10 27 18 33 8 8 14 31 14 58 l0 46 26 -52 c14 -29 29 -52 34
-52 5 0 -2 22 -15 49 -22 44 -47 128 -58 191 -2 14 -5 17 -6 8z"/>
<path d="M460 1920 c14 -4 101 -8 193 -9 l168 -1 -3 -97 -3 -98 -160 -7 c-265
-11 -282 -16 -58 -14 124 1 216 5 222 11 5 6 12 58 16 118 l7 107 -203 -1
c-118 -1 -193 -4 -179 -9z"/>
<path d="M1811 1524 c0 -11 3 -14 6 -6 3 7 2 16 -1 19 -3 4 -6 -2 -5 -13z"/>
<path d="M2060 1535 c0 -5 5 -17 10 -25 5 -8 10 -10 10 -5 0 6 -5 17 -10 25
-5 8 -10 11 -10 5z"/>
<path d="M2032 1500 c0 -14 2 -19 5 -12 2 6 2 18 0 25 -3 6 -5 1 -5 -13z"/>
<path d="M2117 1303 c-2 -5 -1 -37 2 -73 6 -70 15 -79 68 -65 31 7 21 20 -15
20 -20 0 -28 6 -30 23 -3 19 1 22 28 22 21 0 30 4 27 13 -2 7 -15 11 -30 9
-22 -3 -27 1 -27 17 0 17 6 21 30 21 17 0 30 5 30 10 0 11 -77 14 -83 3z"/>
<path d="M1923 1282 c-32 -3 -47 -22 -18 -22 11 0 15 -12 15 -50 0 -40 -3 -48
-15 -44 -8 4 -15 10 -15 15 0 5 -4 9 -10 9 -18 0 -10 -29 11 -40 36 -20 49 -6
49 54 0 32 5 56 12 58 23 8 2 23 -29 20z"/>
<path d="M2006 1275 c-8 -8 -18 -24 -21 -36 -7 -21 12 -79 25 -79 5 0 15 -3
24 -6 25 -9 66 40 66 79 0 18 -5 38 -12 45 -17 17 -64 15 -82 -3z m72 -32 c7
-50 -45 -86 -66 -45 -17 32 9 75 42 70 13 -2 22 -12 24 -25z"/>
<path d="M1965 1105 c-43 -42 -28 -85 31 -85 51 0 78 56 43 91 -25 25 -45 24
-74 -6z m60 -30 c0 -24 -5 -31 -24 -33 -36 -5 -47 12 -27 43 23 35 51 29 51
-10z"/>
<path d="M2087 1112 c-46 -51 8 -115 62 -74 29 22 38 56 21 78 -17 20 -64 18
-83 -4z m71 -23 c3 -16 -22 -49 -36 -49 -22 1 -34 20 -28 45 5 21 12 26 34 23
15 -2 28 -10 30 -19z"/>
<path d="M1872 1097 c-42 -44 -17 -102 33 -79 14 7 25 16 25 22 0 7 -6 8 -19
0 -30 -16 -41 -12 -41 14 0 29 22 49 44 40 11 -4 16 -1 16 10 0 24 -33 20 -58
-7z"/>
<path d="M1901 914 c0 -11 3 -14 6 -6 3 7 2 16 -1 19 -3 4 -6 -2 -5 -13z"/>
<path d="M495 440 c-97 -5 -77 -6 110 -7 127 -1 241 3 255 7 29 9 -181 9 -365
0z"/>
</g>
</svg>
